<svg width="532" height="532" viewBox="0 0 532 532" fill="none" xmlns="http://www.w3.org/2000/svg">
<g clip-path="url(#clip0_249_790)">
<path d="M532 266C532 343.63 498.741 413.499 445.691 462.123C436.412 470.637 426.524 478.499 416.098 485.63C413.786 487.213 411.452 488.766 409.089 490.277C406.869 491.695 404.621 493.077 402.358 494.43C400.554 495.512 398.735 496.564 396.902 497.603C390.687 501.132 384.315 504.412 377.799 507.433H377.785C377.047 507.784 376.31 508.12 375.565 508.457C375.114 508.664 374.663 508.865 374.204 509.066C372.114 509.997 370.001 510.906 367.882 511.787C367.009 512.145 366.135 512.503 365.261 512.854C356.741 516.29 348.006 519.291 339.077 521.832C335.84 522.756 332.583 523.622 329.296 524.417C314.703 527.983 299.638 530.346 284.216 531.384C278.194 531.792 272.122 532 266 532C244.627 532 223.848 529.479 203.936 524.718C201.852 524.224 199.768 523.701 197.706 523.143C195.644 522.606 193.589 522.033 191.549 521.439C190.002 520.987 188.463 520.522 186.923 520.042C185.907 519.734 184.89 519.405 183.873 519.075C176.691 516.748 169.638 514.121 162.736 511.214C162.593 511.15 162.443 511.092 162.299 511.028C147.836 504.898 134.024 497.524 121.007 489.046V489.039C117.57 486.805 114.198 484.492 110.875 482.101C43.7273 433.82 0 355.015 0 266C0 119.095 119.095 0 266 0C412.905 0 532 119.095 532 266Z" fill="white"/>
<path d="M270.759 347.278C318.448 347.278 357.108 308.619 357.108 260.929C357.108 213.24 318.448 174.58 270.759 174.58C223.07 174.58 184.41 213.24 184.41 260.929C184.41 308.619 223.07 347.278 270.759 347.278Z" fill="#FFB6B6"/>
<path d="M199.288 366.614L217.288 320.614L310.288 306.614L320.28 408.44L226.28 410.44L199.288 366.614Z" fill="#FFB6B6"/>
<path d="M357.945 276.861C356.824 281.351 354.559 292.041 351.021 292.094C348.131 292.136 345.364 245.759 348.251 238.088C351.568 229.275 342.852 218.127 336.287 212.405C324.483 202.115 298.28 224.209 271.636 214.201C270.93 213.936 271.07 213.966 262.657 210.609C236.767 200.279 235.406 199.981 233.923 199.834C221.372 198.592 206.056 208.862 199.801 221.384C193.3 234.401 198.732 245.565 192.618 277.056C191.905 280.727 190.787 285.958 189.026 286.035C185.808 286.176 182.666 268.987 181.843 264.485C178.395 245.623 175.07 227.438 181.843 207.017C182.581 204.79 187.134 196.523 196.21 180.079C209.284 156.391 215.86 144.502 217.76 142.366C231.389 127.04 256.196 113.059 277.024 119.02C287.551 122.033 285.663 126.877 298.574 131.591C321.582 139.991 341.579 129.718 345.266 136.978C347.22 140.824 341.754 143.995 341.675 151.345C341.539 163.957 357.489 167.601 366.817 180.079C371.831 186.787 380.414 186.859 357.945 276.861Z" fill="#2F2E41"/>
<path d="M464.92 442.61C461.44 446.521 457.83 450.351 454.09 454.091C403.85 504.33 337.05 532 266 532C204.59 532 146.36 511.33 99.2502 473.28C99.2202 473.261 99.2002 473.24 99.1704 473.21C92.9204 468.171 86.8704 462.811 81.0303 457.15C81.1401 456.271 81.2603 455.4 81.3901 454.54C82.2102 448.74 83.1204 443.21 84.1401 438.12C92.4902 396.4 202.36 352.601 205.22 351.46C205.26 351.45 205.28 351.44 205.28 351.44C205.28 351.44 219.42 403.561 280.01 402.891C321.28 402.44 313.28 351.44 313.28 351.44C313.28 351.44 313.78 351.54 314.72 351.74C326.64 354.271 409.4 372.45 442.05 397.261C452 404.82 459.14 420.921 464.27 440.12C464.49 440.94 464.7 441.78 464.92 442.61Z" fill="#6C63FF"/>
</g>
<defs>
<clipPath id="clip0_249_790">
<rect width="532" height="532" fill="white"/>
</clipPath>
</defs>
</svg>
