<svg width="532" height="532" viewBox="0 0 532 532" fill="none" xmlns="http://www.w3.org/2000/svg">
<g clip-path="url(#clip0_263_1136)">
<path d="M532 266C532 343.63 498.741 413.499 445.691 462.123C436.412 470.637 426.524 478.499 416.098 485.63C413.786 487.213 411.452 488.766 409.089 490.277C406.869 491.695 404.621 493.077 402.358 494.43C400.554 495.512 398.735 496.564 396.902 497.603C390.687 501.132 384.315 504.412 377.799 507.433H377.785C377.047 507.784 376.31 508.12 375.565 508.457C375.114 508.664 374.663 508.865 374.204 509.066C372.114 509.996 370.001 510.906 367.882 511.787C367.009 512.145 366.135 512.503 365.261 512.854C356.741 516.29 348.006 519.291 339.077 521.832C335.84 522.756 332.583 523.622 329.296 524.417C314.703 527.983 299.638 530.346 284.216 531.384C278.194 531.792 272.122 532 266 532C244.627 532 223.848 529.479 203.936 524.718C201.852 524.224 199.768 523.701 197.706 523.143C195.644 522.606 193.589 522.033 191.549 521.439C190.002 520.987 188.463 520.522 186.923 520.042C185.907 519.734 184.89 519.405 183.873 519.075C176.691 516.748 169.638 514.121 162.736 511.214C162.593 511.15 162.443 511.092 162.299 511.028C147.836 504.898 134.024 497.524 121.007 489.046V489.039C117.57 486.805 114.198 484.492 110.875 482.101C43.7273 433.82 0 355.015 0 266C0 119.095 119.095 0 266 0C412.905 0 532 119.095 532 266Z" fill="white"/>
<path d="M266.349 311.698C314.038 311.698 352.698 273.038 352.698 225.349C352.698 177.66 314.038 139 266.349 139C218.66 139 180 177.66 180 225.349C180 273.038 218.66 311.698 266.349 311.698Z" fill="#868686"/>
<path d="M266 340C166.589 340 86 394.621 86 462C118.5 493 188.05 535.682 266 532.5C364 528.5 410.5 492.5 446 462C446 394.621 365.411 340 266 340Z" fill="#868686"/>
</g>
<defs>
<clipPath id="clip0_263_1136">
<rect width="532" height="532" fill="white"/>
</clipPath>
</defs>
</svg>
